<svg
  xmlns="http://www.w3.org/2000/svg"
  viewBox="0 0 64 64"
  role="img"
  aria-label="StudySpark logo"
>
  <defs>
    <linearGradient id="studyspark-gradient" x1="8" y1="4" x2="56" y2="60" gradientUnits="userSpaceOnUse">
      <stop stop-color="#8b5cf6" />
      <stop offset="0.52" stop-color="#a855f7" />
      <stop offset="1" stop-color="#d946ef" />
    </linearGradient>
    <linearGradient id="studyspark-highlight" x1="12" y1="8" x2="44" y2="48" gradientUnits="userSpaceOnUse">
      <stop stop-color="#ffffff" stop-opacity="0.28" />
      <stop offset="1" stop-color="#ffffff" stop-opacity="0" />
    </linearGradient>
  </defs>

  <rect width="64" height="64" rx="18" fill="url(#studyspark-gradient)" />
  <rect width="64" height="64" rx="18" fill="url(#studyspark-highlight)" />

  <g
    fill="none"
    stroke="#ffffff"
    stroke-width="4"
    stroke-linecap="round"
    stroke-linejoin="round"
  >
    <path d="m31 14-3.25 9.75a5 5 0 0 1-3.16 3.16L15 30l9.59 3.09a5 5 0 0 1 3.16 3.16L31 46l3.25-9.75a5 5 0 0 1 3.16-3.16L47 30l-9.59-3.09a5 5 0 0 1-3.16-3.16L31 14Z" />
    <path d="M47 11v8" />
    <path d="M43 15h8" />
  </g>
</svg>
